<svg xmlns="http://www.w3.org/2000/svg" xmlns:xlink="http://www.w3.org/1999/xlink" width="39" height="21" viewBox="0 0 39 21"><defs><style>.a{fill:#ccc;}.b{clip-path:url(#a);}.c{fill:#ffb600;}.d{fill:#f7981d;}.e{fill:#ff8500;}.f{fill:#ff5050;}.g{fill:#e52836;}.h{fill:#cb2026;}.i{fill:#fff;}.j{fill:#dce5e5;}</style><clipPath id="a"><rect class="a" width="39" height="21" transform="translate(-0.448 0)"/></clipPath></defs><g class="b" transform="translate(0.448)"><g transform="translate(2.007 -0.034)"><path class="c" d="M39.7,19.85a10.517,10.517,0,1,1-21.033,0h0a10.517,10.517,0,1,1,21.033,0Z" transform="translate(-4.644 -9.333)"/><path class="d" d="M29.183,9.333A10.544,10.544,0,0,1,39.7,19.85h0a10.517,10.517,0,1,1-21.033,0" transform="translate(-4.644 -9.333)"/><path class="e" d="M32.667,9.333A10.544,10.544,0,0,1,43.183,19.85h0A10.508,10.508,0,0,1,32.667,30.367" transform="translate(-8.128 -9.333)"/><path class="f" d="M10.405,9.333a10.517,10.517,0,0,0,.111,21.033,10.639,10.639,0,0,0,7.067-2.727h0a10,10,0,0,0,1.057-1.113h-2.17a12.836,12.836,0,0,1-.779-1.057H19.42a7.128,7.128,0,0,0,.612-1.113H15.08a6.632,6.632,0,0,1-.445-1.113h5.787a11.049,11.049,0,0,0,.556-3.339,14.363,14.363,0,0,0-.223-2.226H14.3a8.135,8.135,0,0,1,.278-1.113h5.787a6.632,6.632,0,0,0-.445-1.113h-4.9a11.035,11.035,0,0,1,.612-1.113h3.728a5.292,5.292,0,0,0-.835-1.113H16.471a9.484,9.484,0,0,1,1.057-1.057,10.268,10.268,0,0,0-7.067-2.727C10.461,9.333,10.461,9.333,10.405,9.333Z" transform="translate(0 -9.333)"/><path class="g" d="M0,19.887A10.508,10.508,0,0,0,10.517,30.4a10.639,10.639,0,0,0,7.067-2.727h0a10,10,0,0,0,1.057-1.113h-2.17a12.836,12.836,0,0,1-.779-1.057H19.42a7.128,7.128,0,0,0,.612-1.113H15.08a6.632,6.632,0,0,1-.445-1.113h5.787a11.049,11.049,0,0,0,.556-3.339,14.363,14.363,0,0,0-.223-2.226H14.3a8.135,8.135,0,0,1,.278-1.113h5.787a6.632,6.632,0,0,0-.445-1.113h-4.9a11.035,11.035,0,0,1,.612-1.113h3.728a5.292,5.292,0,0,0-.835-1.113H16.471a9.484,9.484,0,0,1,1.057-1.057,10.268,10.268,0,0,0-7.067-2.727h-.056" transform="translate(0 -9.37)"/><path class="h" d="M13.963,30.4a10.639,10.639,0,0,0,7.067-2.727h0a10,10,0,0,0,1.057-1.113h-2.17a12.836,12.836,0,0,1-.779-1.057h3.728a7.128,7.128,0,0,0,.612-1.113H18.526a6.632,6.632,0,0,1-.445-1.113h5.787a11.049,11.049,0,0,0,.556-3.339,14.363,14.363,0,0,0-.223-2.226H17.747a8.136,8.136,0,0,1,.278-1.113h5.787a6.632,6.632,0,0,0-.445-1.113h-4.9a11.035,11.035,0,0,1,.612-1.113h3.728a5.292,5.292,0,0,0-.835-1.113H19.917a9.484,9.484,0,0,1,1.057-1.057,10.268,10.268,0,0,0-7.067-2.727h-.056" transform="translate(-3.446 -9.37)"/><g transform="translate(1.002 7.79)"><path class="i" d="M18.428,25.267l.167-.946a2.41,2.41,0,0,1-.278.056c-.39,0-.445-.223-.39-.334l.334-1.948h.612l.167-1.057h-.556l.111-.668H17.483s-.668,3.673-.668,4.118a.835.835,0,0,0,.89.946A1.708,1.708,0,0,0,18.428,25.267Z" transform="translate(-5.185 -19.87)"/><path class="i" d="M19.481,23.687a1.77,1.77,0,0,0,1.948,1.948,2.889,2.889,0,0,0,1.169-.167l.223-1.057a3.336,3.336,0,0,1-1.169.278c-1.224,0-1-.89-1-.89h2.281a7.215,7.215,0,0,0,.167-1,1.508,1.508,0,0,0-1.614-1.614C20.316,21.072,19.481,22.3,19.481,23.687Zm1.948-1.614c.612,0,.5.723.5.779H20.706C20.706,22.8,20.817,22.073,21.429,22.073Z" transform="translate(-5.849 -20.07)"/><path class="i" d="M30.468,25.1l.223-1.224a2.735,2.735,0,0,1-.946.278c-.779,0-1.113-.612-1.113-1.28,0-1.335.668-2.059,1.447-2.059a1.858,1.858,0,0,1,1,.334l.167-1.169a3.912,3.912,0,0,0-1.28-.278c-1.28,0-2.56,1.113-2.56,3.227,0,1.391.668,2.337,2,2.337A4.994,4.994,0,0,0,30.468,25.1Z" transform="translate(-7.821 -19.704)"/><path class="i" d="M10.114,21.037a3.941,3.941,0,0,0-1.335.223l-.167.946a3.289,3.289,0,0,1,1.224-.223c.39,0,.723.056.723.39,0,.223-.056.278-.056.278H10c-.946,0-2,.39-2,1.669,0,1,.668,1.224,1.057,1.224a1.672,1.672,0,0,0,1.169-.5l-.056.445h1l.445-3.06A1.319,1.319,0,0,0,10.114,21.037Zm.223,2.5c0,.167-.111,1.057-.779,1.057a.434.434,0,0,1-.445-.445c0-.278.167-.668,1-.668A.877.877,0,0,0,10.337,23.541Z" transform="translate(-2.992 -20.035)"/><path class="i" d="M13.8,25.526a1.426,1.426,0,0,0,1.669-1.447c0-1.391-1.335-1.113-1.335-1.669,0-.278.223-.39.612-.39.167,0,.779.056.779.056l.167-1a4.227,4.227,0,0,0-1.057-.111c-.835,0-1.669.334-1.669,1.447,0,1.28,1.391,1.169,1.391,1.669,0,.334-.39.39-.668.39a3.639,3.639,0,0,1-1-.167l-.167,1C12.574,25.414,12.852,25.526,13.8,25.526Z" transform="translate(-4.116 -20.017)"/><path class="i" d="M42.727,19.852l-.223,1.5a1.543,1.543,0,0,0-1.057-.556c-1,0-1.892,1.224-1.892,2.671,0,.89.445,1.836,1.391,1.836A1.485,1.485,0,0,0,42,24.86l-.056.39h1.113l.835-5.342Zm-.5,2.949c0,.612-.278,1.391-.89,1.391-.39,0-.612-.334-.612-.89,0-.89.39-1.447.89-1.447C42,21.855,42.226,22.133,42.226,22.8Z" transform="translate(-10.843 -19.741)"/><path class="i" d="M2.391,25.194l.668-4.006.111,4.006h.779L5.4,21.187l-.612,4.006H5.952l.89-5.342H5.006L3.893,23.135l-.056-3.283H2.224l-.89,5.342Z" transform="translate(-1.333 -19.741)"/><path class="i" d="M25.3,25.525c.334-1.836.39-3.339,1.169-3.06a4.367,4.367,0,0,1,.39-1.28h-.223c-.5,0-.89.668-.89.668l.111-.612H24.8l-.723,4.34H25.3Z" transform="translate(-6.991 -20.072)"/><path class="i" d="M34.189,21.037a3.941,3.941,0,0,0-1.335.223l-.167.946a3.289,3.289,0,0,1,1.224-.223c.39,0,.723.056.723.39,0,.223-.056.278-.056.278h-.5c-.946,0-2,.39-2,1.669,0,1,.668,1.224,1.057,1.224a1.672,1.672,0,0,0,1.169-.5l-.056.445h1l.445-3.06A1.3,1.3,0,0,0,34.189,21.037Zm.278,2.5c0,.167-.111,1.057-.779,1.057a.434.434,0,0,1-.445-.445c0-.278.167-.668,1-.668C34.411,23.541,34.411,23.541,34.467,23.541Z" transform="translate(-8.982 -20.035)"/><path class="i" d="M37.743,25.525c.334-1.836.39-3.339,1.169-3.06a4.368,4.368,0,0,1,.39-1.28h-.223c-.5,0-.89.668-.89.668l.111-.612H37.242l-.723,4.34h1.224Z" transform="translate(-10.088 -20.072)"/></g><g transform="translate(1.002 7.79)"><path class="j" d="M16.667,24.488a.835.835,0,0,0,.89.946,2.118,2.118,0,0,0,.835-.167l.167-.946a2.41,2.41,0,0,1-.278.056c-.39,0-.445-.223-.39-.334l.334-1.948h.612L19,21.038h-.556l.111-.668" transform="translate(-5.148 -19.87)"/><path class="j" d="M20.222,23.687c0,1.558.5,1.948,1.391,1.948a2.889,2.889,0,0,0,1.169-.167L23,24.41a3.336,3.336,0,0,1-1.169.278c-1.224,0-1-.89-1-.89h2.281a7.215,7.215,0,0,0,.167-1,1.508,1.508,0,0,0-1.614-1.614C20.5,21.072,20.222,22.3,20.222,23.687Zm1.391-1.614c.612,0,.723.723.723.779H20.89C20.89,22.8,21,22.073,21.613,22.073Z" transform="translate(-6.033 -20.07)"/><path class="j" d="M30.652,25.1l.223-1.224a2.735,2.735,0,0,1-.946.278c-.779,0-1.113-.612-1.113-1.28,0-1.335.668-2.059,1.447-2.059a1.858,1.858,0,0,1,1,.334l.167-1.169a3.912,3.912,0,0,0-1.28-.278c-1.28,0-2,1.113-2,3.227,0,1.391.111,2.337,1.447,2.337A4.994,4.994,0,0,0,30.652,25.1Z" transform="translate(-8.005 -19.704)"/><path class="j" d="M8.612,22.3a3.289,3.289,0,0,1,1.224-.223c.39,0,.723.056.723.39,0,.223-.056.278-.056.278H10c-.946,0-2,.39-2,1.669,0,1,.668,1.224,1.057,1.224a1.672,1.672,0,0,0,1.169-.5l-.056.445h1l.445-3.06c0-1.28-1.113-1.335-1.558-1.335m.835,2.393a1.822,1.822,0,0,1-1.335,1.057.434.434,0,0,1-.445-.445c0-.278.167-.668,1-.668A4.546,4.546,0,0,0,10.893,23.578Z" transform="translate(-2.992 -20.072)"/><path class="j" d="M12.593,25.414a4.71,4.71,0,0,0,1.28.111,1.426,1.426,0,0,0,1.669-1.447c0-1.391-1.335-1.113-1.335-1.669,0-.278.223-.39.612-.39.167,0,.779.056.779.056l.167-1a4.227,4.227,0,0,0-1.057-.111c-.835,0-1.113.334-1.113,1.447,0,1.28.835,1.169.835,1.669,0,.334-.39.39-.668.39" transform="translate(-4.135 -20.017)"/><path class="j" d="M42.688,21.373a1.543,1.543,0,0,0-1.057-.556c-1,0-1.335,1.224-1.335,2.671,0,.89-.111,1.836.835,1.836a1.485,1.485,0,0,0,1.057-.445l-.056.39h1.113l.835-5.342m-1.447,2.893c0,.612-.5,1.391-1.113,1.391-.39,0-.612-.334-.612-.89,0-.89.39-1.447.89-1.447A.85.85,0,0,1,42.632,22.819Z" transform="translate(-11.026 -19.759)"/><path class="j" d="M2.391,25.194l.668-4.006.111,4.006h.779L5.4,21.187l-.612,4.006H5.952l.89-5.342H5.451L3.893,23.135l-.056-3.283H3.225L1.333,25.194Z" transform="translate(-1.333 -19.741)"/><path class="j" d="M24.148,25.525h1.169c.334-1.836.39-3.339,1.169-3.06a4.368,4.368,0,0,1,.39-1.28h-.223c-.5,0-.89.668-.89.668l.111-.612" transform="translate(-7.01 -20.072)"/><path class="j" d="M32.686,22.3a3.289,3.289,0,0,1,1.224-.223c.39,0,.723.056.723.39,0,.223-.056.278-.056.278h-.5c-.946,0-2,.39-2,1.669,0,1,.668,1.224,1.057,1.224a1.672,1.672,0,0,0,1.169-.5l-.056.445h1l.445-3.06c0-1.28-1.113-1.335-1.558-1.335m.835,2.393a1.822,1.822,0,0,1-1.335,1.057.434.434,0,0,1-.445-.445c0-.278.167-.668,1-.668A4.9,4.9,0,0,0,34.968,23.578Z" transform="translate(-8.982 -20.072)"/><path class="j" d="M36.593,25.525h1.169c.334-1.836.39-3.339,1.169-3.06a4.367,4.367,0,0,1,.39-1.28H39.1c-.5,0-.89.668-.89.668l.111-.612" transform="translate(-10.106 -20.072)"/></g></g></g></svg>