<svg xmlns="http://www.w3.org/2000/svg" xmlns:xlink="http://www.w3.org/1999/xlink" width="40" height="21" viewBox="0 0 40 21"><defs><style>.a{fill:#ccc;}.b{clip-path:url(#a);}.c{fill:#139ad6;}.d{fill:#263b80;}.e{fill:#232c65;}</style><clipPath id="a"><rect class="a" width="40" height="21" transform="translate(0.059 0)"/></clipPath></defs><g class="b" transform="translate(-0.059)"><g transform="translate(-0.046 5.395)"><path class="c" d="M39.86,23.261H37.712a.42.42,0,0,0-.316.253l-.885,5.561a.168.168,0,0,0,.19.19h1.138a.168.168,0,0,0,.19-.19l.253-1.58a.289.289,0,0,1,.316-.253h.7a2.2,2.2,0,0,0,2.465-2.085,1.656,1.656,0,0,0-.253-1.39,2.549,2.549,0,0,0-1.643-.506m.253,2.085c-.126.758-.7.758-1.264.758H38.47l.253-1.454c0-.063.063-.126.19-.126h.126c.379,0,.758,0,.948.253.126.063.126.253.126.569" transform="translate(-9.084 -20.607)"/><g transform="translate(11.944 2.654)"><path class="d" d="M19.249,23.261H17.1a.42.42,0,0,0-.316.253L15.9,29.075a.168.168,0,0,0,.19.19H17.1a.42.42,0,0,0,.316-.253l.253-1.517a.289.289,0,0,1,.316-.253h.7a2.2,2.2,0,0,0,2.465-2.085,1.656,1.656,0,0,0-.253-1.39,2.429,2.429,0,0,0-1.643-.506m.253,2.085c-.126.758-.7.758-1.264.758h-.316l.253-1.454c0-.063.063-.126.19-.126h.126c.379,0,.758,0,.948.253a.677.677,0,0,1,.063.569" transform="translate(-15.9 -23.261)"/><path class="d" d="M27.4,25.911H26.388c-.063,0-.19.063-.19.126l-.063.316-.063-.126a1.487,1.487,0,0,0-1.2-.442,2.428,2.428,0,0,0-2.338,2.085,1.884,1.884,0,0,0,.379,1.58,1.592,1.592,0,0,0,1.327.506,2.02,2.02,0,0,0,1.454-.569l-.063.316a.168.168,0,0,0,.19.19h.948a.42.42,0,0,0,.316-.253l.569-3.539c-.063-.063-.19-.19-.253-.19m-1.454,2.022a1.222,1.222,0,0,1-1.2,1.011,1.011,1.011,0,0,1-.7-.253,1.348,1.348,0,0,1-.19-.758,1.127,1.127,0,0,1,1.833-.758,1.1,1.1,0,0,1,.253.758" transform="translate(-17.54 -23.889)"/></g><path class="c" d="M47.926,25.911H46.915c-.063,0-.19.063-.19.126l-.063.316-.063-.126a1.487,1.487,0,0,0-1.2-.442A2.428,2.428,0,0,0,43.06,27.87a1.884,1.884,0,0,0,.379,1.58,1.592,1.592,0,0,0,1.327.506,2.02,2.02,0,0,0,1.454-.569l-.063.316a.168.168,0,0,0,.19.19h.948a.42.42,0,0,0,.316-.253l.569-3.539c-.063-.063-.126-.19-.253-.19m-1.454,2.022a1.222,1.222,0,0,1-1.2,1.011,1.011,1.011,0,0,1-.7-.253,1.348,1.348,0,0,1-.19-.758,1.127,1.127,0,0,1,1.833-.758.725.725,0,0,1,.253.758" transform="translate(-10.704 -21.235)"/><path class="d" d="M34.731,25.953H33.657a.328.328,0,0,0-.253.126l-1.39,2.149-.632-2.022a.292.292,0,0,0-.316-.19H30.055c-.126,0-.19.126-.19.253L31,29.619l-1.074,1.517c-.063.126,0,.316.126.316h1.011a.328.328,0,0,0,.253-.126l3.476-4.992c.19-.19.063-.379-.063-.379" transform="translate(-7.431 -21.277)"/><path class="c" d="M50.856,23.463l-.885,5.688a.168.168,0,0,0,.19.19h.885a.42.42,0,0,0,.316-.253l.885-5.561a.168.168,0,0,0-.19-.19H51.046c-.063-.063-.126,0-.19.126" transform="translate(-12.433 -20.62)"/><path class="d" d="M7.268,20.486a3.122,3.122,0,0,0-2.4-.758H1.706a.542.542,0,0,0-.442.379L0,28.386a.289.289,0,0,0,.253.316H2.212l.506-3.1v.126a.542.542,0,0,1,.442-.379h.948a3.337,3.337,0,0,0,3.665-2.844v-.19h0a2.207,2.207,0,0,0-.506-1.833" transform="translate(0 -19.728)"/><path class="c" d="M8.38,23.177h0v.19c-.442,2.149-1.833,2.844-3.665,2.844H3.766a.542.542,0,0,0-.442.379l-.632,3.855a.231.231,0,0,0,.253.253H4.588a.354.354,0,0,0,.379-.316v-.063l.316-1.959v-.126a.354.354,0,0,1,.379-.316h.253a2.828,2.828,0,0,0,3.16-2.528,2.323,2.323,0,0,0-.316-1.9.647.647,0,0,0-.379-.316" transform="translate(-0.67 -20.586)"/><path class="e" d="M8.168,22.862c-.063,0-.126-.063-.19-.063a.232.232,0,0,1-.19-.063,3.339,3.339,0,0,0-.822-.063H4.5a.232.232,0,0,0-.19.063.348.348,0,0,0-.19.316l-.506,3.286v.126a.542.542,0,0,1,.442-.379h.948a3.337,3.337,0,0,0,3.665-2.844.232.232,0,0,1,.063-.19c-.126-.063-.19-.126-.316-.126-.19-.063-.19-.063-.253-.063" transform="translate(-0.9 -20.46)"/></g></g></svg>