<svg xmlns="http://www.w3.org/2000/svg" xmlns:xlink="http://www.w3.org/1999/xlink" width="40" height="21" viewBox="0 0 40 21"><defs><style>.a{fill:#ccc;}.b{clip-path:url(#a);}.c{fill:#3c58bf;}.d{fill:#293688;}.e{fill:#ffbc00;}.f{fill:#f7981d;}.g{fill:#ed7c00;}.h{fill:#051244;}</style><clipPath id="a"><rect class="a" width="40" height="21" transform="translate(0 0)"/></clipPath></defs><g class="b"><g transform="translate(-0.209 4.448)"><path class="c" d="M19.433,30.346l2.022-11.375h3.16L22.656,30.346Z" transform="translate(-4.835 -18.591)"/><path class="d" d="M19.433,30.346l2.591-11.375h2.591L22.656,30.346Z" transform="translate(-4.835 -18.591)"/><path class="c" d="M35.748,18.971a8.016,8.016,0,0,0-2.907-.506c-3.16,0-5.435,1.58-5.435,3.855,0,1.706,1.58,2.591,2.844,3.16s1.643.948,1.643,1.454c0,.758-1.011,1.138-1.9,1.138a6.869,6.869,0,0,1-3.033-.632l-.442-.19-.442,2.591a10.247,10.247,0,0,0,3.6.632c3.349,0,5.561-1.58,5.561-3.981,0-1.327-.822-2.338-2.717-3.16-1.138-.569-1.833-.885-1.833-1.454,0-.506.569-1.011,1.833-1.011a5.8,5.8,0,0,1,2.4.442l.316.126.506-2.465Z" transform="translate(-6.489 -18.466)"/><path class="d" d="M35.748,18.971a8.016,8.016,0,0,0-2.907-.506c-3.16,0-4.866,1.58-4.866,3.855a3.3,3.3,0,0,0,2.275,3.16c1.264.569,1.643.948,1.643,1.454,0,.758-1.011,1.138-1.9,1.138a6.869,6.869,0,0,1-3.033-.632l-.442-.19-.442,2.591a10.247,10.247,0,0,0,3.6.632c3.349,0,5.561-1.58,5.561-3.981,0-1.327-.822-2.338-2.717-3.16-1.138-.569-1.833-.885-1.833-1.454,0-.506.569-1.011,1.833-1.011a5.8,5.8,0,0,1,2.4.442l.316.126.506-2.465Z" transform="translate(-6.489 -18.466)"/><path class="c" d="M44.072,18.971c-.758,0-1.327.063-1.643.822l-4.74,10.554H41.1l.632-1.9h4.045l.379,1.9h3.033L46.536,18.971Zm-1.454,7.584c.19-.569,1.264-3.349,1.264-3.349s.253-.7.442-1.138l.19,1.074s.632,2.844.758,3.476H42.618Z" transform="translate(-9.377 -18.591)"/><path class="d" d="M44.83,18.971c-.758,0-1.327.063-1.643.822l-5.5,10.554H41.1l.632-1.9h4.045l.379,1.9h3.033L46.536,18.971Zm-2.212,7.584c.253-.632,1.264-3.349,1.264-3.349s.253-.7.442-1.138l.19,1.074s.632,2.844.758,3.476H42.618Z" transform="translate(-9.377 -18.591)"/><path class="c" d="M10.124,26.954l-.316-1.643a9.161,9.161,0,0,0-4.424-4.992L8.228,30.43h3.413l5.119-11.375H13.347Z" transform="translate(-1.34 -18.612)"/><path class="d" d="M10.124,26.954l-.316-1.643a9.161,9.161,0,0,0-4.424-4.992L8.228,30.43h3.413l5.119-11.375H13.979Z" transform="translate(-1.34 -18.612)"/><path class="e" d="M0,18.971l.569.126c4.045.948,6.825,3.349,7.9,6.193L7.331,19.919c-.19-.758-.758-.948-1.454-.948Z" transform="translate(0 -18.591)"/><path class="f" d="M0,18.971H0c4.045.948,7.394,3.413,8.468,6.256L7.394,20.74a1.543,1.543,0,0,0-1.517-1.2Z" transform="translate(0 -18.591)"/><path class="g" d="M0,18.971H0c4.045.948,7.394,3.413,8.468,6.256L7.71,22.762A2.229,2.229,0,0,0,6.383,20.93Z" transform="translate(0 -18.591)"/><g transform="translate(4.108 1.643)"><path class="h" d="M13.3,26.973l-2.149-2.149-1.011,2.4-.253-1.58a9.161,9.161,0,0,0-4.424-4.992L8.312,30.765h3.413Z" transform="translate(-5.468 -20.653)"/><path class="h" d="M22.656,33.193l-2.717-2.781-.506,2.781Z" transform="translate(-8.943 -23.081)"/><path class="h" d="M31.577,28.9h0c.253.253.379.442.316.7,0,.758-1.011,1.138-1.9,1.138a6.869,6.869,0,0,1-3.033-.632l-.442-.19L26.079,32.5a10.247,10.247,0,0,0,3.6.632,6.257,6.257,0,0,0,4.613-1.58Z" transform="translate(-10.596 -22.704)"/><path class="h" d="M38.278,31.372h2.97l.632-1.9h4.045l.379,1.9h3.033l-1.074-4.613-3.792-3.665.19,1.011s.632,2.844.758,3.476H42.765c.253-.632,1.264-3.349,1.264-3.349s.253-.7.442-1.138" transform="translate(-13.631 -21.26)"/></g></g></g></svg>